<svg width="24" height="24" viewBox="0 0 24 24" fill="none" xmlns="http://www.w3.org/2000/svg">
<g id="fountain-pen 1">
<g id="44 Fountain pen">
<path id="Vector" d="M22.4415 1.56179C22.1594 1.28213 21.7782 1.12523 21.381 1.12523C20.9838 1.12523 20.6026 1.28213 20.3205 1.56179L19.2596 2.62233C19.1143 2.76179 21.2415 4.88906 21.381 4.74378L22.4415 3.68287C22.7212 3.40074 22.8781 3.01958 22.8781 2.62233C22.8781 2.22509 22.7212 1.84392 22.4415 1.56179Z" fill="#424242"/>
<path id="Vector_2" d="M20.5211 9.84623C20.7868 9.5798 20.9922 9.25943 21.1235 8.90678C21.2547 8.55413 21.3087 8.17742 21.2818 7.80211C21.2549 7.4268 21.1478 7.06163 20.9676 6.73129C20.7874 6.40095 20.5385 6.11314 20.2375 5.88731L18.8654 7.25948C18.9917 7.29578 19.1065 7.36434 19.1984 7.45841C19.2902 7.55249 19.3561 7.66885 19.3893 7.79606C19.4226 7.92327 19.4223 8.05695 19.3882 8.18397C19.3542 8.31099 19.2878 8.42697 19.1954 8.52053L16.4204 11.2953C16.333 11.3826 16.2686 11.4902 16.2328 11.6085C16.197 11.7267 16.191 11.852 16.2153 11.9731L16.3039 12.4145C16.3319 12.5466 16.3949 12.6688 16.4863 12.7684C16.5776 12.8679 16.6941 12.9411 16.8234 12.9802C16.9527 13.0194 17.0901 13.0232 17.2214 12.9911C17.3526 12.959 17.4728 12.8923 17.5695 12.7979L20.5211 9.84623Z" fill="#F9A825"/>
<path id="Vector_3" d="M21.2485 4.08093L19.9228 2.75527C19.7462 2.58368 19.5091 2.48848 19.2629 2.49023C19.0166 2.49198 18.781 2.59054 18.6068 2.76461C18.4326 2.93869 18.3339 3.1743 18.3321 3.42055C18.3302 3.66679 18.4253 3.90388 18.5967 4.0806L19.9224 5.40626C20.0991 5.57785 20.3361 5.67305 20.5824 5.6713C20.8286 5.66955 21.0643 5.57099 21.2384 5.39692C21.4126 5.22284 21.5113 4.98723 21.5132 4.74099C21.5151 4.49474 21.42 4.25765 21.2485 4.08093Z" fill="#F9A825"/>
<path id="Vector_4" d="M20.5859 5.00894L18.9943 3.41737C18.783 3.20703 18.497 3.08898 18.1989 3.08905C17.9007 3.08912 17.6147 3.20731 17.4035 3.41774L11.5698 9.25147C11.4995 9.32179 11.46 9.41717 11.46 9.51661C11.46 9.61606 11.4995 9.71143 11.5698 9.78176L14.2215 12.4335C14.2918 12.5038 14.3872 12.5433 14.4867 12.5433C14.5861 12.5433 14.6815 12.5038 14.7518 12.4335L20.5859 6.59981C20.7961 6.38846 20.9142 6.10248 20.9142 5.80437C20.9142 5.50627 20.7961 5.22029 20.5859 5.00894Z" fill="#424242"/>
<path id="Vector_5" d="M11.5135 9.32381L10.5674 10.9007L13.1031 13.4361L14.6796 12.4899L11.5135 9.32381Z" fill="#F9A825"/>
<path id="Vector_6" d="M3.52455 18.4137C3.34912 18.9396 2.56031 18.9528 2.55409 18.9528C2.47541 18.9528 2.39871 18.9775 2.33489 19.0235C2.27106 19.0695 2.22335 19.1345 2.19851 19.2091L1.13797 22.3911C1.11692 22.457 1.11443 22.5276 1.13078 22.5949C1.14713 22.6622 1.18169 22.7237 1.23067 22.7727C1.27964 22.8216 1.34116 22.8562 1.40847 22.8725C1.47577 22.8889 1.54628 22.8864 1.61227 22.8654L4.7943 21.8048C4.86854 21.7798 4.93312 21.7322 4.97906 21.6687C5.02501 21.6053 5.05003 21.5291 5.05065 21.4507C5.05065 21.4432 5.06381 20.6542 5.58971 20.4788C5.84827 20.4013 3.6018 18.1549 3.52455 18.4137Z" fill="#F9A825"/>
<g id="Group">
<path id="Vector_7" d="M3.8802 20.6535L1.75856 22.7749C1.68784 22.8432 1.59311 22.881 1.49479 22.8802C1.39646 22.8793 1.30241 22.8399 1.23288 22.7703C1.16335 22.7008 1.12392 22.6068 1.12306 22.5084C1.12221 22.4101 1.16 22.3154 1.22831 22.2447L3.34976 20.1232C3.68888 19.774 4.22929 20.3147 3.8802 20.6535Z" fill="#424242"/>
<path id="Vector_8" d="M10.7743 10.5775L3.34977 18.0021C3.34977 18.0021 3.20329 18.3859 3.34977 18.5324L5.47092 20.6535C5.54124 20.7238 5.63662 20.7633 5.73606 20.7633C5.83551 20.7633 5.93088 20.7238 6.00121 20.6535L13.4262 13.2289L10.7743 10.5775Z" fill="#424242"/>
</g>
</g>
</g>
</svg>
