<svg xmlns="http://www.w3.org/2000/svg" width="18" height="18" viewBox="0 0 18 18" fill="none">
<path d="M8.82865 2.80761C10.5847 1.04992 13.434 1.04992 15.1913 2.80728C16.9036 4.51958 16.9475 7.26849 15.3231 9.03394L15.1819 9.18197L8.58193 15.7806L8.5545 15.8033C7.45857 16.7909 5.76807 16.7573 4.71254 15.7018C3.72328 14.7125 3.63169 13.1655 4.43778 12.073C4.45529 12.039 4.47647 12.0062 4.50138 11.9753L4.54155 11.9306L4.60673 11.8648L4.71254 11.7539L4.71473 11.756L10.2915 6.16528C10.491 5.96531 10.8034 5.94674 11.0239 6.10984L11.087 6.16422C11.287 6.36365 11.3056 6.67613 11.1425 6.89655L11.0881 6.95971L5.39212 12.6695C4.85389 13.3262 4.8913 14.2969 5.50435 14.91C6.12615 15.5318 7.11589 15.5614 7.77273 14.9988L14.3972 8.37596C15.7139 7.05773 15.7139 4.9208 14.3958 3.60278C13.119 2.32595 11.0737 2.28604 9.74879 3.48307L9.62288 3.60278L9.61347 3.61351L2.46122 10.7658C2.24155 10.9854 1.8854 10.9854 1.66573 10.7658C1.46603 10.5661 1.44787 10.2536 1.61127 10.0333L1.66573 9.97026L8.82738 2.80728L8.82865 2.80761Z" fill="#667085"/>
</svg>